<?xml version="1.0" encoding="utf-8"?>
<!-- Generator: Adobe Illustrator 21.1.0, SVG Export Plug-In . SVG Version: 6.00 Build 0)  -->
<svg version="1.1" id="Layer_1" xmlns="http://www.w3.org/2000/svg" xmlns:xlink="http://www.w3.org/1999/xlink" x="0px" y="0px"
	 viewBox="0 0 750.1 763.1" style="enable-background:new 0 0 750.1 763.1;" xml:space="preserve">
<style type="text/css">
	.st0{fill:#232635;}
	.st1{fill:#20344C;}
	.st2{fill:#FDFDFD;}
</style>
<title>adam-haney-logo_1</title>
<g id="Layer_2">
	<g id="Layer_1-2">
		<g id="_6Z7gvS.tif">
			<path class="st0" d="M0.1,762c0-253.7,0-507.3,0-761l1-1h748l1,1v761l-1,1H1L0.1,762z M83.4,394c0,95.5,0,191,0,286.4
				c0,7,0,7,7,7h573.4c6.8,0,6.8,0,6.8-6.6c0-191.3,0-382.6,0-573.9c0-8.2,0.3-7-7-7c-191,0-381.9,0-572.9,0c-7.9,0-7.3-1.2-7.3,7.1
				C83.4,202.8,83.4,298.4,83.4,394L83.4,394z"/>
			<path class="st1" d="M1,0.1L0,1C-0.1,0.2,0.2-0.1,1,0.1z"/>
			<path class="st1" d="M750,1l-1-1C749.9-0.1,750.2,0.2,750,1z"/>
			<path class="st1" d="M0.1,762l1,1C0.2,763.2-0.1,762.9,0.1,762z"/>
			<path class="st1" d="M749,763l1-1C750.2,762.9,749.9,763.2,749,763z"/>
			<path class="st2" d="M83.4,394.1c0-95.6,0-191.3,0-286.9c0-8.3-0.6-7.1,7.3-7.1c191,0,381.9,0,572.9,0c7.3,0,7-1.2,7,7
				c0,191.3,0,382.6,0,573.9c0,6.6,0,6.6-6.8,6.6H90.4c-7,0-7,0-7-7C83.4,585,83.4,489.5,83.4,394.1z M377.1,675.1
				c91.7,0,183.3,0,275,0c7.5,0,6.8,0.8,6.8-6.6c0-183.1,0-366.3,0-549.4c0-6.8,0-6.8-6.7-6.8H101.7c-6.6,0-6.6,0-6.6,6.4
				c0,183.3,0,366.6,0,549.9c0,6.4,0,6.4,6.5,6.4L377.1,675.1z"/>
			<path class="st0" d="M377.1,675.1H101.6c-6.5,0-6.5,0-6.5-6.4c0-183.3,0-366.6,0-549.9c0-6.4,0-6.4,6.6-6.4h550.4
				c6.7,0,6.7,0,6.7,6.8c0,183.1,0,366.3,0,549.4c0,7.4,0.7,6.6-6.8,6.6C560.4,675.1,468.8,675.1,377.1,675.1z M366.7,233.1
				l-88.2,217.4c-0.8-1.5-1-2.1-1.4-2.7c-11-17.9-22.8-35.3-32.9-53.6c-17.2-30.9-33.4-62.2-50-93.4c-4-7.5-3.9-7.3-11.4-3.6
				c-3.7,1.8-4.2,3.5-2.2,7.2c16.7,30.9,33.1,62,49.8,93c1.9,3.4,1.7,5.8-0.3,9c-15.8,25.3-31.4,50.7-47.1,76.1
				c-4.7,7.6-4.6,7.4,2.9,12.4c3.3,2.2,4.8,1.7,6.8-1.6c14.8-24.3,29.8-48.6,44.8-72.8c0.9-1.5,1.4-3.4,3.6-4.2
				c9.5,15.3,19,30.6,28.6,45.7c1.8,2.9,1.9,5.1,0.5,8.2c-11,24.3-21.8,48.6-32.6,73c-3.9,8.9-4.6,6.8,4.2,11.3
				c4.1,2.1,5.5,1,7.2-2.9c10.9-24.9,22.1-49.6,33-74.5c1.6-3.6,3.4-4.9,7.4-4.9c56.2,0.1,112.3,0.1,168.5,0c3.7,0,5.6,1.1,7.1,4.5
				c10.6,24.1,21.4,48.1,32.1,72.1c3.4,7.6,3.3,7.3,11.1,4.3c4.3-1.7,4.4-3.6,2.6-7.4c-11.4-25-22.4-50.2-33.8-75.2
				c-1.6-3.5-1.3-6,0.7-9.1c8.9-13.9,17.5-28,26.2-41.9c2.9-4.6,2.9-4.6,6-0.2c16.4,23.7,32.9,47.3,49.3,71
				c5.1,7.3,4.9,7.1,12.4,2.2c3.3-2.2,3.5-3.8,1.3-7c-18.5-26.3-36.7-52.8-55.1-79.2c-2.3-3.3-2.6-5.6-0.4-9.2
				c18.7-30.8,37.1-61.6,55.6-92.5c0.8-1.4,2.8-3.1,1.9-4.3c-2.4-3.3-6.2-5-9.9-6.4c-2.2-0.8-2.8,2.4-3.7,3.9
				c-29.5,48.9-58.5,98.2-89.1,146.4c-1,1.6-1.7,3.6-4,5l-87.8-216.1C377.9,227,369.2,227,366.7,233.1z"/>
			<path class="st2" d="M374.8,219.5l92.4,228c0.4,1,1.7,1.2,2.4,0.4c1.1-1.2,1.6-2.5,2.3-3.7c30.6-48.3,59.6-97.5,89.1-146.5
				c0.9-1.6,1.5-4.8,3.7-3.9c3.7,1.4,7.5,3.1,9.9,6.4c0.9,1.3-1,3-1.9,4.3c-18.5,30.9-36.9,61.8-55.6,92.5c-2.2,3.6-1.9,5.9,0.4,9.2
				c18.5,26.3,36.7,52.8,55.1,79.2c2.3,3.2,2.1,4.8-1.3,7c-7.5,4.9-7.3,5-12.4-2.2c-16.4-23.7-32.9-47.3-49.3-71
				c-3.1-4.4-3.1-4.4-6,0.2c-8.7,14-17.4,28-26.2,41.9c-2,3.1-2.3,5.6-0.7,9.1c11.4,25,22.4,50.2,33.8,75.2c1.7,3.8,1.7,5.7-2.6,7.4
				c-7.8,3.1-7.7,3.4-11.1-4.3c-10.7-24-21.5-48-32.1-72.1c-1.5-3.5-3.4-4.5-7.1-4.5c-56.2,0.1-112.3,0.1-168.5,0
				c-4,0-5.8,1.3-7.4,4.9c-10.9,24.9-22.1,49.6-33,74.5c-1.7,3.8-3.1,5-7.2,2.9c-8.8-4.5-8.1-2.4-4.2-11.3
				c10.8-24.4,21.7-48.7,32.6-73c1.4-3.1,1.3-5.3-0.5-8.2c-9.4-14.8-18.6-29.7-27.9-44.6c-0.5-0.7-1.5-0.9-2.2-0.3
				c-1.1,1-1.5,2.3-2.2,3.4c-15,24.2-30,48.5-44.8,72.8c-2,3.3-3.5,3.8-6.8,1.6c-7.5-4.9-7.6-4.8-2.9-12.4
				c15.8-25.5,31.4-50.9,47.2-76.1c2-3.2,2.2-5.6,0.3-9c-16.7-30.9-33.1-62-49.8-93c-2-3.7-1.5-5.3,2.2-7.2
				c7.5-3.7,7.4-3.9,11.4,3.6c16.6,31.2,32.8,62.5,50,93.4c10.2,18.3,21.9,35.8,32.9,53.6c0,0,0,0,0,0c0.6,1,2.1,0.9,2.6-0.2
				l92.5-228C372.7,218.4,374.4,218.4,374.8,219.5z"/>
		</g>
	</g>
</g>
</svg>
