<?xml version="1.0" encoding="UTF-8"?>
<svg{%if include.width%} width="{{include.width}}"{%endif%}{%if include.height%} height="{{include.height}}"{%endif%} viewBox="0 0 750.11 763.11" xmlns="http://www.w3.org/2000/svg">
<defs>
<style>.admhny-1{fill:#20344c;}.admhny-2{fill:#fdfdfd;}</style>
</defs>
<title>adam-haney-logo_1</title>
<g data-name="Layer 2">
<g data-name="Layer 1">
<g data-name="6Z7gvS.tif">
<path class="admhny-1" d="M.05,762.05q0-380.5,0-761l1-1h748l1,1v761l-1,1H1.05Zm83.38-368q0,143.22,0,286.44c0,7,0,7,7,7H663.78c6.79,0,6.8,0,6.8-6.61q0-286.94,0-573.88c0-8.21.35-7-6.95-7q-286.44,0-572.88,0c-7.87,0-7.31-1.19-7.31,7.11Q83.42,250.6,83.43,394.07Z"/>
<path class="admhny-1" d="m1.05 0.05l-1 1q-0.29-1.29 1-1z"/>
<path class="admhny-1" d="m750.05 1.05l-1-1q1.29-0.29 1 1z"/>
<path class="admhny-1" d="m0.05 762.05l1 1q-1.29 0.29-1-1z"/>
<path class="admhny-1" d="m749.05 763.05l1-1q0.29 1.29-1 1z"/>
<path class="admhny-2" d="M83.43,394.07q0-143.47,0-286.94c0-8.3-.56-7.11,7.31-7.11q286.44,0,572.88,0c7.29,0,6.95-1.25,6.95,7q0,286.94,0,573.88c0,6.61,0,6.61-6.8,6.61H90.4c-7,0-7,0-7-7Q83.43,537.29,83.43,394.07ZM377.11,675.12q137.48,0,275,0c7.54,0,6.81.8,6.81-6.57q0-274.72,0-549.43c0-6.77,0-6.78-6.74-6.78H101.72c-6.55,0-6.56,0-6.56,6.45q0,275,0,549.93c0,6.4,0,6.41,6.49,6.41Z"/>
<path class="admhny-1" d="M377.11,675.12H101.64c-6.48,0-6.49,0-6.49-6.41q0-275,0-549.93c0-6.44,0-6.45,6.56-6.45H652.15c6.74,0,6.74,0,6.74,6.78q0,274.72,0,549.43c0,7.38.73,6.57-6.81,6.57Q514.59,675.14,377.11,675.12Zm-3.6-458.87-95,234.25c-.78-1.52-1-2.15-1.39-2.72-11-17.86-22.75-35.33-32.95-53.65-17.18-30.85-33.39-62.23-50-93.4-4-7.49-3.89-7.29-11.4-3.57-3.71,1.84-4.19,3.49-2.2,7.18,16.68,30.94,33.1,62,49.79,93,1.85,3.43,1.69,5.8-.33,9-15.79,25.3-31.39,50.71-47.05,76.09-4.69,7.6-4.58,7.43,2.94,12.36,3.3,2.16,4.78,1.69,6.8-1.64,14.81-24.34,29.81-48.56,44.8-72.79.9-1.46,1.35-3.38,3.61-4.21,9.52,15.27,19,30.57,28.61,45.73,1.83,2.88,1.9,5.15.51,8.21q-16.45,36.43-32.59,73c-3.94,8.9-4.59,6.81,4.17,11.29,4.15,2.12,5.52,1,7.21-2.87,10.89-24.87,22.1-49.6,33-74.47,1.57-3.58,3.37-4.87,7.36-4.86q84.23.22,168.47,0c3.7,0,5.58,1.06,7.09,4.51,10.56,24.11,21.35,48.11,32.06,72.15,3.4,7.62,3.28,7.35,11.12,4.27,4.34-1.71,4.36-3.6,2.62-7.43-11.36-25-22.4-50.2-33.77-75.22-1.59-3.5-1.29-6,.71-9.09,8.89-13.89,17.52-28,26.25-41.94,2.88-4.61,2.92-4.61,6-.19q24.66,35.52,49.3,71c5.06,7.29,4.94,7.11,12.39,2.24,3.33-2.18,3.53-3.75,1.27-7-18.45-26.33-36.67-52.83-55.13-79.16-2.3-3.29-2.6-5.63-.42-9.22,18.68-30.75,37.14-61.65,55.63-92.52.83-1.38,2.81-3.07,1.88-4.34-2.39-3.26-6.24-5-9.88-6.36-2.24-.84-2.79,2.36-3.73,3.92-29.5,48.94-58.51,98.17-89.09,146.45-1,1.65-1.7,3.64-4,5Z"/>
<path class="admhny-2" d="M373.51,216.26,468,449.3c2.34-1.35,3-3.34,4-5,30.58-48.28,59.6-97.51,89.09-146.45.94-1.56,1.49-4.75,3.73-3.92,3.65,1.36,7.49,3.1,9.88,6.36.94,1.28-1,3-1.88,4.34-18.49,30.87-36.94,61.77-55.63,92.52-2.18,3.59-1.88,5.93.42,9.22,18.46,26.33,36.68,52.83,55.13,79.16,2.26,3.22,2.06,4.8-1.27,7-7.45,4.87-7.34,5.05-12.39-2.24q-24.65-35.52-49.3-71c-3.07-4.43-3.11-4.42-6,.19-8.73,14-17.36,28.05-26.25,41.94-2,3.14-2.31,5.59-.71,9.09,11.38,25,22.42,50.19,33.77,75.22,1.74,3.82,1.71,5.72-2.62,7.43-7.83,3.09-7.72,3.36-11.12-4.27-10.71-24-21.49-48-32.06-72.15-1.51-3.45-3.39-4.51-7.09-4.51q-84.23.18-168.47,0c-4,0-5.8,1.28-7.36,4.86-10.88,24.87-22.09,49.6-33,74.47-1.68,3.85-3.06,5-7.21,2.87-8.77-4.48-8.11-2.39-4.17-11.29q16.19-36.55,32.59-73c1.38-3.06,1.32-5.33-.51-8.21-9.65-15.16-19.09-30.46-28.61-45.73-2.26.83-2.71,2.76-3.61,4.21-15,24.23-30,48.45-44.8,72.79-2,3.32-3.5,3.8-6.8,1.64-7.52-4.93-7.63-4.76-2.94-12.36C198.6,457,214.2,431.62,230,406.33c2-3.23,2.18-5.61.33-9-16.69-30.93-33.1-62-49.79-93-2-3.68-1.52-5.34,2.2-7.18,7.51-3.72,7.41-3.91,11.4,3.57,16.62,31.16,32.83,62.55,50,93.4,10.2,18.32,21.92,35.79,32.95,53.65.35.57.62,1.19,1.39,2.72Z"/>
</g>
</g>
</g>
</svg>
